<?xml version="1.0" encoding="UTF-8" standalone="no"?>
<!DOCTYPE svg PUBLIC "-//W3C//DTD SVG 1.1//EN" "http://www.w3.org/Graphics/SVG/1.1/DTD/svg11.dtd">
<svg width="100%" height="100%" viewBox="0 0 4961 4961" version="1.1" xmlns="http://www.w3.org/2000/svg" xmlns:xlink="http://www.w3.org/1999/xlink" xml:space="preserve" xmlns:serif="http://www.serif.com/" style="fill-rule:evenodd;clip-rule:evenodd;stroke-linejoin:round;stroke-miterlimit:2;">
    <rect id="Mesa-de-trabajo2" serif:id="Mesa de trabajo2" x="0" y="0" width="4960.629921" height="4960.629921" style="fill:none;"/>
    <g id="Mesa-de-trabajo21" serif:id="Mesa de trabajo2">
        <g transform="matrix(20.748357,0,0,20.744872,-8144.654121,-14621.063622)">
            <path d="M600.717226,887.539654C591.442125,924.572735 565.984035,920.272785 525.500184,920.28839C452.457622,920.316545 447.653008,922.21029 433.677961,908.326638C420.241377,894.977928 422.710043,890.758374 422.500069,779.5C422.480108,768.923276 420.115543,741.99569 449.550309,730.651792C458.200406,727.318121 471.726746,728.581196 554.498434,728.346808C562.37679,728.324498 579.658955,727.3472 593.057948,743.87382C603.699532,756.999388 601.511128,763.801616 601.678786,857.4985C601.722105,881.707541 601.35996,881.667012 600.717226,887.539654Z" style="fill:rgb(90,134,255);"/>
        </g>
        <g transform="matrix(20.744872,0,0,20.744872,-8143.182094,-14621.063622)">
            <path d="M540.206039,827.492677C540.175206,829.606966 540.992174,842.598963 537.790392,841.00912C535.15486,839.700448 539.105071,806.130268 533.681563,812.66106C532.134278,814.524244 534.356393,840.000989 531.659758,840.951572C526.356735,842.820927 532.306106,807.589989 526.467132,812.452294C525.607215,813.168375 523.249736,846.252622 526.966315,852.206754C528.999965,855.464757 539.923864,862.906137 529.203943,880.316948C519.968252,895.31714 503.788994,893.775182 477.499938,893.482467C453.237931,893.212323 457.143319,868.903681 457.121738,854.502309C456.997917,771.871409 457.36669,771.784163 458.72809,768.604117C461.365876,762.442604 467.847282,757.824203 475.501513,757.762209C516.190651,757.432655 516.441384,756.759443 519.532775,758.448921C522.153633,759.881247 537.400354,778.519821 563.072493,801.926661C570.015692,808.257195 569.307775,809.596168 569.287753,867.499375C569.287594,867.958156 572.018165,886.527364 556.405449,892.215835C550.565473,894.343621 531.00102,893.593143 530.797653,893.276981C530.069579,892.145087 538.884551,887.000783 541.619319,873.526728C543.707158,863.240063 541.260203,862.083071 548.333903,854.352081C553.53219,848.670767 551.972483,843.108575 551.474505,819.500275C551.462536,818.932824 551.340602,813.152155 550.52087,812.469938C544.369392,807.350403 550.644357,847.297405 544.584354,840.437181C542.954058,838.591606 545.903669,806.230736 540.858396,812.789742C540.253218,813.576492 540.312226,816.514952 540.206039,827.492677Z" style="fill:rgb(251,252,253);"/>
        </g>
        <g transform="matrix(20.744872,0,0,20.744872,-8143.182094,-14621.063622)">
            <path d="M498.499881,804.527941C499.124437,804.541181 505.636287,804.679227 506.223871,805.675022C508.915647,810.236845 500.52902,808.96229 475.492396,809.151781C467.651998,809.211121 470.101286,805.815204 470.443848,805.449854C471.588036,804.229556 474.401342,804.601914 498.499881,804.527941Z" style="fill:rgb(90,134,255);"/>
        </g>
        <g transform="matrix(20.744872,0,0,20.744872,-8143.182094,-14621.063622)">
            <path d="M499.501712,823.301122C473.633346,823.211305 469.290219,824.169494 470.123242,820.380669C470.69705,817.770826 471.913806,818.17905 503.486461,818.766867C503.810537,818.7729 506.928329,818.830947 506.481123,821.495948C506.202844,823.15428 500.0783,823.288487 499.501712,823.301122Z" style="fill:rgb(90,134,255);"/>
        </g>
        <g transform="matrix(20.744872,0,0,20.744872,-8143.182094,-14621.063622)">
            <path d="M473.500017,833.479947C479.186685,833.454266 497.458553,832.248579 492.298735,837.298653C491.223423,838.351095 491.021816,838.318935 473.507946,838.102072C469.822146,838.056433 468.191263,834.111578 473.500017,833.479947Z" style="fill:rgb(90,134,255);"/>
        </g>
        <g transform="matrix(20.744872,0,0,20.744872,-8143.182094,-14621.063622)">
            <path d="M519.108079,763.871331C522.105278,782.679957 515.481625,789.010281 533.476427,794.533129C536.835635,795.564116 531.894335,798.599259 524.567529,793.406948C523.765278,792.838414 518.015156,791.56377 517.446303,775.787172C517.334274,772.680171 517.423198,769.010723 517.79044,764.673453C517.789584,761.86307 517.764078,761.87972 517.789515,761.638239C518.012778,759.51877 518.370093,761.942072 519.108079,763.871331Z" style="fill:rgb(145,164,206);"/>
        </g>
    </g>
</svg>
